<svg class="ldi-z4eiy" width="100%" height="100%" xmlns="http://www.w3.org/2000/svg" xmlns:xlink="http://www.w3.org/1999/xlink" viewBox="0 0 100 100" preserveAspectRatio="xMidYMid"><!--?xml version="1.0" encoding="utf-8"?--><!--Generator: Adobe Illustrator 21.0.0, SVG Export Plug-In . SVG Version: 6.00 Build 0)--><svg version="1.1" id="Layer_1" xmlns="http://www.w3.org/2000/svg" xmlns:xlink="http://www.w3.org/1999/xlink" x="0px" y="0px" viewBox="0 0 100 100" style="transform-origin: 50px 50px 0px;" xml:space="preserve"><g style="transform-origin: 50px 50px 0px;"><g style="transform-origin: 50px 50px 0px; transform: scale(0.6);"><g style="transform-origin: 50px 50px 0px;"><g><style type="text/css" class="ld ld-heartbeat" style="transform-origin: 50px 50px 0px; animation-duration: 1s; animation-delay: -1s; animation-direction: normal;">.st0{fill:#999998;} .st1{fill:#323232;} .st2{fill:#CCCCCB;} .st3{fill:#ACBD81;} .st4{fill:#849B87;}</style><g class="ld ld-heartbeat" style="transform-origin: 50px 50px 0px; animation-duration: 1s; animation-delay: -0.923077s; animation-direction: normal;"><path class="st2" d="M48.531,23.66c-0.792-0.726-2.07-0.164-2.07,0.91v17.682h-21.4c-0.954,0-1.728,0.774-1.728,1.728V56.02 c0,0.954,0.774,1.728,1.728,1.728h21.4v17.682c0,1.075,1.277,1.636,2.07,0.91L76.266,50.91c0.267-0.245,0.4-0.578,0.4-0.91 c0-0.333-0.134-0.666-0.4-0.91L48.531,23.66z M50.017,70.153V57.748v-3.556h-3.556H26.889v-8.384h19.573h3.556v-3.556V29.847 L71.998,50L50.017,70.153z" fill="#e90c59" style="fill: rgb(233, 12, 89);"></path></g><g class="ld ld-heartbeat" style="transform-origin: 50px 50px 0px; animation-duration: 1s; animation-delay: -0.846154s; animation-direction: normal;"><polygon class="st0" points="50.017,42.252 50.017,45.808 46.462,45.808 26.889,45.808 26.889,54.192 46.462,54.192 50.017,54.192 50.017,57.748 50.017,70.153 71.998,50 50.017,29.847 " fill="#fe718d" style="fill: rgb(254, 113, 141);"></polygon></g><g class="ld ld-heartbeat" style="transform-origin: 50px 50px 0px; animation-duration: 1s; animation-delay: -0.769231s; animation-direction: normal;"><path class="st1" d="M50,10c-22.091,0-40,17.909-40,40c0,22.091,17.909,40,40,40s40-17.909,40-40C90,27.909,72.091,10,50,10z M76.266,50.91L48.531,76.34c-0.792,0.726-2.07,0.164-2.07-0.91V57.748h-21.4c-0.954,0-1.728-0.774-1.728-1.728V43.98 c0-0.954,0.774-1.728,1.728-1.728h21.4V24.571c0-1.075,1.277-1.636,2.07-0.91L76.266,49.09c0.267,0.245,0.4,0.577,0.4,0.91 C76.667,50.333,76.533,50.666,76.266,50.91z" fill="#ffe6f5" style="fill: rgb(255, 230, 245);"></path></g><metadata xmlns:d="https://loading.io/stock/" class="ld ld-heartbeat" style="transform-origin: 50px 50px 0px; animation-duration: 1s; animation-delay: -0.692308s; animation-direction: normal;">
<d:name class="ld ld-heartbeat" style="transform-origin: 50px 50px 0px; animation-duration: 1s; animation-delay: -0.615385s; animation-direction: normal;">right</d:name>
<d:tags class="ld ld-heartbeat" style="transform-origin: 50px 50px 0px; animation-duration: 1s; animation-delay: -0.538462s; animation-direction: normal;">east,foward,redo,next,direction,way,turn,circle,right,arrow</d:tags>
<d:license class="ld ld-heartbeat" style="transform-origin: 50px 50px 0px; animation-duration: 1s; animation-delay: -0.461538s; animation-direction: normal;">cc-by</d:license>
<d:slug class="ld ld-heartbeat" style="transform-origin: 50px 50px 0px; animation-duration: 1s; animation-delay: -0.384615s; animation-direction: normal;">z4eiy</d:slug>
</metadata></g></g></g></g><style type="text/css" class="ld ld-heartbeat" style="transform-origin: 50px 50px 0px; animation-duration: 1s; animation-delay: -0.307692s; animation-direction: normal;">@keyframes ld-heartbeat {
  0% {
    -webkit-transform: scale(1.05);
    transform: scale(1.05);
  }
  5% {
    -webkit-transform: scale(1.25);
    transform: scale(1.25);
  }
  39% {
    -webkit-transform: scale(0.9);
    transform: scale(0.9);
  }
  45% {
    -webkit-transform: scale(1.15);
    transform: scale(1.15);
  }
  60% {
    -webkit-transform: scale(1.05);
    transform: scale(1.05);
  }
  100% {
    -webkit-transform: scale(1);
    transform: scale(1);
  }
}
@-webkit-keyframes ld-heartbeat {
  0% {
    -webkit-transform: scale(1.05);
    transform: scale(1.05);
  }
  5% {
    -webkit-transform: scale(1.25);
    transform: scale(1.25);
  }
  39% {
    -webkit-transform: scale(0.9);
    transform: scale(0.9);
  }
  45% {
    -webkit-transform: scale(1.15);
    transform: scale(1.15);
  }
  60% {
    -webkit-transform: scale(1.05);
    transform: scale(1.05);
  }
  100% {
    -webkit-transform: scale(1);
    transform: scale(1);
  }
}
.ld.ld-heartbeat {
  -webkit-animation: ld-heartbeat 0.8s infinite cubic-bezier(0.215, 0.61, 0.355, 1);
  animation: ld-heartbeat 0.8s infinite cubic-bezier(0.215, 0.61, 0.355, 1);
}
</style></svg></svg>